# xmcd CD database file
#
# Track frame offsets:
#	150
#	21098
#	39094
#	59097
#	76273
#	93085
#	109738
#	123466
#	140139
#	154577
#	171276
#	189062
#	213747
#	231441
#
# Disc length: 3358 seconds
#
# Revision: 1
# Processed by: cddbd v1.5.2PL0 Copyright (c) Steve Scherf et al.
# Submitted via: CDex 2.22
#
DISCID=b90d1c0e
DTITLE=Zed Mitchell - Summer in L.A.
DYEAR=2010
DGENRE=Blues
TTITLE0=Dont Lie To Me
TTITLE1=Cadilllac
TTITLE2=Her Love
TTITLE3=It's Killing Me
TTITLE4=All Allone
TTITLE5=Summer In L.A.
TTITLE6=Billion Kisses
TTITLE7=Good Night, Baby
TTITLE8=Game Is On
TTITLE9=Friends Are Like Diamonds
TTITLE10=The Lady Lives The Blues
TTITLE11=Silence
TTITLE12=On The Road Of Life
TTITLE13=Somebody Told Me
EXTD=YEAR: 2010
EXTT0=
EXTT1=
EXTT2=
EXTT3=
EXTT4=
EXTT5=
EXTT6=
EXTT7=
EXTT8=
EXTT9=
EXTT10=
EXTT11=
EXTT12=
EXTT13=
PLAYORDER=
